<?xml version="1.0" encoding="utf-8"?>
<!-- Generator: Adobe Illustrator 15.0.2, SVG Export Plug-In  -->
<!DOCTYPE svg PUBLIC "-//W3C//DTD SVG 1.1//EN" "http://www.w3.org/Graphics/SVG/1.1/DTD/svg11.dtd" [
	<!ENTITY ns_flows "http://ns.adobe.com/Flows/1.0/">
]>
<svg version="1.1"
	 xmlns="http://www.w3.org/2000/svg" xmlns:xlink="http://www.w3.org/1999/xlink" xmlns:a="http://ns.adobe.com/AdobeSVGViewerExtensions/3.0/"
	 x="0px" y="0px" width="633px" height="367px" viewBox="0 0 633 367" enable-background="new 0 0 633 367" xml:space="preserve">
<defs>
</defs>
<path d="M316.723,246.875l-188.961-58.16v97.137c0,44.906,84.629,81.316,189.019,81.316c104.383,0,189.028-36.41,189.028-81.316
	c0-0.355-0.117-0.707-0.125-1.055v-96.082L316.723,246.875z M316.723,246.875"/>
<path d="M0,121.847l67.508,24.149l5.75-12.321l24.801-2.105l3.535,3.676l-21.282,5.047l-3.101,9.179
	c-0.004,0-48.066,100.485-41.008,149.641c0,0,30,17.898,59.988,0l7.973-134.399v-11.187l44.637-10.07l-3.153,7.765l-33.281,10.821
	l15.395,5.5l188.961,58.16l188.96-58.16l127.758-45.692L316.723,0L0,121.847z M0,121.847"/>
</svg>
